<?xml version="1.0" standalone="no"?>
<!DOCTYPE svg PUBLIC "-//W3C//DTD SVG 20010904//EN"
 "http://www.w3.org/TR/2001/REC-SVG-20010904/DTD/svg10.dtd">
<svg version="1.0" xmlns="http://www.w3.org/2000/svg"
 width="487.000000pt" height="285.000000pt" viewBox="0 0 487.000000 285.000000"
 preserveAspectRatio="xMidYMid meet">

<g transform="translate(0.000000,285.000000) scale(0.100000,-0.100000)"
fill="#000000" stroke="none">
<path d="M2314 2806 c-237 -77 -613 -349 -1077 -781 l-149 -138 -271 -68
c-150 -37 -298 -79 -330 -93 -141 -63 -266 -169 -310 -263 -20 -44 -22 -66
-25 -283 l-3 -235 -34 -23 c-54 -34 -88 -111 -93 -207 -8 -141 32 -221 135
-271 l58 -29 313 -5 314 -5 18 -52 c35 -101 121 -206 219 -267 22 -14 76 -38
118 -52 70 -24 89 -26 188 -22 160 7 247 46 363 160 50 49 132 189 132 224 0
12 97 14 627 12 l627 -3 6 -25 c42 -157 196 -303 375 -355 81 -24 247 -17 326
14 144 55 265 177 315 318 l18 51 181 4 181 3 76 37 c125 62 200 166 233 324
29 135 17 630 -20 849 -36 212 -53 237 -305 448 -389 326 -792 598 -1021 692
-161 65 -157 65 -659 65 -448 -1 -456 -1 -526 -24z m396 -611 l0 -375 -57 -1
c-32 0 -332 -15 -668 -33 -335 -18 -612 -31 -615 -28 -11 10 389 374 569 519
192 153 366 260 459 282 20 5 99 9 175 10 l137 1 0 -375z m594 340 c267 -69
648 -264 769 -394 97 -104 114 -200 41 -239 -11 -6 -129 -16 -265 -22 -134 -6
-368 -17 -519 -25 -151 -8 -292 -15 -312 -15 l-38 0 0 367 0 366 114 -6 c69
-4 151 -17 210 -32z m-1862 -1735 c53 -15 117 -67 152 -123 42 -68 48 -164 14
-238 -85 -184 -317 -222 -448 -73 -46 53 -63 99 -64 174 -2 116 67 216 177
257 41 15 121 16 169 3z m2334 -18 c83 -42 135 -124 142 -223 4 -56 1 -75 -20
-120 -49 -107 -135 -164 -248 -163 -104 1 -188 53 -235 145 -75 147 -9 312
150 376 45 19 162 10 211 -15z"/>
</g>
</svg>
